REM DIRINDEX 1\2\4,1\2\5,1\2\6,1\3\7,1\3\8
REM DIRNAME folder01,folder02,folder03,folder04,folder05,folder06,folder07,folder08
TITLE ""
FILE "030_Lesson 25_Output_Stage.mp3" MP3
  TRACK 01 AUDIO
    TITLE "0:"
    INDEX 01 00:00:00
  TRACK 02 AUDIO
    TITLE "6:cjc128_1806"
    INDEX 01 00:00:25
  TRACK 03 AUDIO
    TITLE "0:"
    INDEX 01 00:03:31
  TRACK 04 AUDIO
    TITLE "6:cjc128_1807"
    INDEX 01 00:04:01
  TRACK 05 AUDIO
    TITLE "0:"
    INDEX 01 00:05:73
  TRACK 06 AUDIO
    TITLE "4:cjc128_1808"
    INDEX 01 00:06:39
  TRACK 07 AUDIO
    TITLE "0:"
    INDEX 01 00:09:32
  TRACK 08 AUDIO
    TITLE "5:cjc128_1809"
    INDEX 01 00:12:67
  TRACK 09 AUDIO
    TITLE "0:"
    INDEX 01 00:16:00
  TRACK 10 AUDIO
    TITLE "6:cjc128_1810"
    INDEX 01 00:16:57
  TRACK 11 AUDIO
    TITLE "0:"
    INDEX 01 00:18:46
  TRACK 12 AUDIO
    TITLE "4:cjc128_1811"
    INDEX 01 00:19:38
  TRACK 13 AUDIO
    TITLE "0:"
    INDEX 01 00:22:25
  TRACK 14 AUDIO
    TITLE "5:cjc128_1812"
    INDEX 01 00:25:45
  TRACK 15 AUDIO
    TITLE "0:"
    INDEX 01 00:28:02
  TRACK 16 AUDIO
    TITLE "6:cjc128_1813"
    INDEX 01 00:28:64
  TRACK 17 AUDIO
    TITLE "0:"
    INDEX 01 00:30:63
  TRACK 18 AUDIO
    TITLE "4:cjc128_1814"
    INDEX 01 00:31:57
  TRACK 19 AUDIO
    TITLE "0:"
    INDEX 01 00:34:73
  TRACK 20 AUDIO
    TITLE "5:cjc128_1815"
    INDEX 01 00:39:27
  TRACK 21 AUDIO
    TITLE "0:"
    INDEX 01 00:42:68
  TRACK 22 AUDIO
    TITLE "6:cjc128_1816"
    INDEX 01 00:43:48
  TRACK 23 AUDIO
    TITLE "0:"
    INDEX 01 00:45:43
  TRACK 24 AUDIO
    TITLE "4:cjc128_1817"
    INDEX 01 00:46:33
  TRACK 25 AUDIO
    TITLE "0:"
    INDEX 01 00:49:27
  TRACK 26 AUDIO
    TITLE "5:cjc128_1818"
    INDEX 01 00:53:11
  TRACK 27 AUDIO
    TITLE "0:"
    INDEX 01 00:56:16
  TRACK 28 AUDIO
    TITLE "6:cjc128_1819"
    INDEX 01 00:56:72
  TRACK 29 AUDIO
    TITLE "0:"
    INDEX 01 00:58:64
  TRACK 30 AUDIO
    TITLE "4:cjc128_1820"
    INDEX 01 00:59:43
  TRACK 31 AUDIO
    TITLE "0:"
    INDEX 01 01:02:44
  TRACK 32 AUDIO
    TITLE "5:cjc128_1821"
    INDEX 01 01:05:73
  TRACK 33 AUDIO
    TITLE "0:"
    INDEX 01 01:08:46
  TRACK 34 AUDIO
    TITLE "6:cjc128_1822"
    INDEX 01 01:09:32
  TRACK 35 AUDIO
    TITLE "0:"
    INDEX 01 01:11:13
  TRACK 36 AUDIO
    TITLE "4:cjc128_1823"
    INDEX 01 01:11:74
  TRACK 37 AUDIO
    TITLE "0:"
    INDEX 01 01:14:37
  TRACK 38 AUDIO
    TITLE "5:cjc128_1824"
    INDEX 01 01:17:61
  TRACK 39 AUDIO
    TITLE "0:"
    INDEX 01 01:20:10
  TRACK 40 AUDIO
    TITLE "6:cjc128_1825"
    INDEX 01 01:21:10
  TRACK 41 AUDIO
    TITLE "0:"
    INDEX 01 01:23:01
  TRACK 42 AUDIO
    TITLE "4:cjc128_1826"
    INDEX 01 01:23:62
  TRACK 43 AUDIO
    TITLE "0:"
    INDEX 01 01:26:05
  TRACK 44 AUDIO
    TITLE "5:cjc128_1827"
    INDEX 01 01:29:72
  TRACK 45 AUDIO
    TITLE "0:"
    INDEX 01 01:32:68
  TRACK 46 AUDIO
    TITLE "6:cjc128_1828"
    INDEX 01 01:33:66
  TRACK 47 AUDIO
    TITLE "0:"
    INDEX 01 01:35:16
  TRACK 48 AUDIO
    TITLE "4:cjc128_1829"
    INDEX 01 01:35:73
  TRACK 49 AUDIO
    TITLE "0:"
    INDEX 01 01:38:55
  TRACK 50 AUDIO
    TITLE "5:cjc128_1830"
    INDEX 01 01:42:28
  TRACK 51 AUDIO
    TITLE "0:"
    INDEX 01 01:45:28
  TRACK 52 AUDIO
    TITLE "6:cjc128_1831"
    INDEX 01 01:46:12
  TRACK 53 AUDIO
    TITLE "0:"
    INDEX 01 01:47:68
  TRACK 54 AUDIO
    TITLE "4:cjc128_1832"
    INDEX 01 01:48:54
  TRACK 55 AUDIO
    TITLE "0:"
    INDEX 01 01:50:56
  TRACK 56 AUDIO
    TITLE "5:cjc128_1833"
    INDEX 01 01:53:08
  TRACK 57 AUDIO
    TITLE "0:"
    INDEX 01 01:54:50
  TRACK 58 AUDIO
    TITLE "6:cjc128_1834"
    INDEX 01 01:55:34
  TRACK 59 AUDIO
    TITLE "0:"
    INDEX 01 01:57:13
  TRACK 60 AUDIO
    TITLE "4:cjc128_1835"
    INDEX 01 01:58:03
  TRACK 61 AUDIO
    TITLE "0:"
    INDEX 01 02:00:04
  TRACK 62 AUDIO
    TITLE "5:cjc128_1836"
    INDEX 01 02:02:32
  TRACK 63 AUDIO
    TITLE "0:"
    INDEX 01 02:03:73
  TRACK 64 AUDIO
    TITLE "6:cjc128_1837"
    INDEX 01 02:04:59
  TRACK 65 AUDIO
    TITLE "0:"
    INDEX 01 02:06:38
  TRACK 66 AUDIO
    TITLE "4:cjc128_1838"
    INDEX 01 02:07:27
  TRACK 67 AUDIO
    TITLE "0:"
    INDEX 01 02:10:34
  TRACK 68 AUDIO
    TITLE "5:cjc128_1839"
    INDEX 01 02:13:56
  TRACK 69 AUDIO
    TITLE "0:"
    INDEX 01 02:16:13
  TRACK 70 AUDIO
    TITLE "6:cjc128_1840"
    INDEX 01 02:17:02
  TRACK 71 AUDIO
    TITLE "0:"
    INDEX 01 02:18:55
  TRACK 72 AUDIO
    TITLE "4:cjc128_1841"
    INDEX 01 02:19:42
  TRACK 73 AUDIO
    TITLE "0:"
    INDEX 01 02:22:58
  TRACK 74 AUDIO
    TITLE "5:cjc128_1842"
    INDEX 01 02:26:23
  TRACK 75 AUDIO
    TITLE "0:"
    INDEX 01 02:28:73
  TRACK 76 AUDIO
    TITLE "6:cjc128_1843"
    INDEX 01 02:29:64
  TRACK 77 AUDIO
    TITLE "0:"
    INDEX 01 02:31:50
  TRACK 78 AUDIO
    TITLE "4:cjc128_1844"
    INDEX 01 02:32:25
  TRACK 79 AUDIO
    TITLE "0:"
    INDEX 01 02:34:69
  TRACK 80 AUDIO
    TITLE "5:cjc128_1845"
    INDEX 01 02:37:72
  TRACK 81 AUDIO
    TITLE "0:"
    INDEX 01 02:40:19
  TRACK 82 AUDIO
    TITLE "6:cjc128_1846"
    INDEX 01 02:41:11
  TRACK 83 AUDIO
    TITLE "0:"
    INDEX 01 02:42:65
  TRACK 84 AUDIO
    TITLE "4:cjc128_1847"
    INDEX 01 02:43:47
  TRACK 85 AUDIO
    TITLE "0:"
    INDEX 01 02:46:55
  TRACK 86 AUDIO
    TITLE "5:cjc128_1848"
    INDEX 01 02:49:69
  TRACK 87 AUDIO
    TITLE "0:"
    INDEX 01 02:52:22
  TRACK 88 AUDIO
    TITLE "6:cjc128_1849"
    INDEX 01 02:53:00
  TRACK 89 AUDIO
    TITLE "0:"
    INDEX 01 02:54:53
  TRACK 90 AUDIO
    TITLE "4:cjc128_1850"
    INDEX 01 02:55:42
  TRACK 91 AUDIO
    TITLE "0:"
    INDEX 01 02:57:49
  TRACK 92 AUDIO
    TITLE "5:cjc128_1851"
    INDEX 01 03:00:61
  TRACK 93 AUDIO
    TITLE "0:"
    INDEX 01 03:03:04
  TRACK 94 AUDIO
    TITLE "6:cjc128_1852"
    INDEX 01 03:03:67
  TRACK 95 AUDIO
    TITLE "0:"
    INDEX 01 03:05:37
  TRACK 96 AUDIO
    TITLE "4:cjc128_1853"
    INDEX 01 03:06:22
  TRACK 97 AUDIO
    TITLE "0:"
    INDEX 01 03:10:46
  TRACK 98 AUDIO
    TITLE "5:cjc128_1854"
    INDEX 01 03:14:34
  TRACK 99 AUDIO
    TITLE "0:"
    INDEX 01 03:17:28
  TRACK 100 AUDIO
    TITLE "6:cjc128_1855"
    INDEX 01 03:18:20
  TRACK 101 AUDIO
    TITLE "0:"
    INDEX 01 03:19:70
  TRACK 102 AUDIO
    TITLE "4:cjc128_1856"
    INDEX 01 03:20:52
  TRACK 103 AUDIO
    TITLE "0:"
    INDEX 01 03:22:55
  TRACK 104 AUDIO
    TITLE "5:cjc128_1857"
    INDEX 01 03:25:45
  TRACK 105 AUDIO
    TITLE "0:"
    INDEX 01 03:27:44
  TRACK 106 AUDIO
    TITLE "6:cjc128_1858"
    INDEX 01 03:28:38
  TRACK 107 AUDIO
    TITLE "0:"
    INDEX 01 03:30:01
  TRACK 108 AUDIO
    TITLE "4:cjc128_1859"
    INDEX 01 03:30:62
  TRACK 109 AUDIO
    TITLE "0:"
    INDEX 01 03:34:50
  TRACK 110 AUDIO
    TITLE "5:cjc128_1860"
    INDEX 01 03:40:17
  TRACK 111 AUDIO
    TITLE "0:"
    INDEX 01 03:45:01
  TRACK 112 AUDIO
    TITLE "6:cjc128_1861"
    INDEX 01 03:45:58
  TRACK 113 AUDIO
    TITLE "0:"
    INDEX 01 03:47:25
  TRACK 114 AUDIO
    TITLE "4:cjc128_1862"
    INDEX 01 03:48:15
  TRACK 115 AUDIO
    TITLE "0:"
    INDEX 01 03:50:53
  TRACK 116 AUDIO
    TITLE "5:cjc128_1863"
    INDEX 01 03:54:37
  TRACK 117 AUDIO
    TITLE "0:"
    INDEX 01 03:57:28
  TRACK 118 AUDIO
    TITLE "6:cjc128_1864"
    INDEX 01 03:58:29
  TRACK 119 AUDIO
    TITLE "0:"
    INDEX 01 04:00:00
  TRACK 120 AUDIO
    TITLE "4:cjc128_1865"
    INDEX 01 04:00:63
  TRACK 121 AUDIO
    TITLE "0:"
    INDEX 01 04:03:71
  TRACK 122 AUDIO
    TITLE "5:cjc128_1866"
    INDEX 01 04:08:10
  TRACK 123 AUDIO
    TITLE "0:"
    INDEX 01 04:11:20
  TRACK 124 AUDIO
    TITLE "6:cjc128_1867"
    INDEX 01 04:12:19
  TRACK 125 AUDIO
    TITLE "0:"
    INDEX 01 04:14:10
  TRACK 126 AUDIO
    TITLE "4:cjc128_1868"
    INDEX 01 04:14:69
  TRACK 127 AUDIO
    TITLE "0:"
    INDEX 01 04:17:15
  TRACK 128 AUDIO
    TITLE "5:cjc128_1869"
    INDEX 01 04:20:31
  TRACK 129 AUDIO
    TITLE "0:"
    INDEX 01 04:23:03
  TRACK 130 AUDIO
    TITLE "6:cjc128_1870"
    INDEX 01 04:23:52
  TRACK 131 AUDIO
    TITLE "0:"
    INDEX 01 04:25:45
  TRACK 132 AUDIO
    TITLE "4:cjc128_1871"
    INDEX 01 04:26:25
  TRACK 133 AUDIO
    TITLE "0:"
    INDEX 01 04:29:28
  TRACK 134 AUDIO
    TITLE "5:cjc128_1872"
    INDEX 01 04:33:31
  TRACK 135 AUDIO
    TITLE "0:"
    INDEX 01 04:36:39
  TRACK 136 AUDIO
    TITLE "6:cjc128_1873"
    INDEX 01 04:37:37
  TRACK 137 AUDIO
    TITLE "0:"
    INDEX 01 04:39:28
  TRACK 138 AUDIO
    TITLE "4:cjc128_1874"
    INDEX 01 04:40:06
  TRACK 139 AUDIO
    TITLE "0:"
    INDEX 01 04:42:28
  TRACK 140 AUDIO
    TITLE "5:cjc128_1875"
    INDEX 01 04:45:42
  TRACK 141 AUDIO
    TITLE "0:"
    INDEX 01 04:47:67
  TRACK 142 AUDIO
    TITLE "6:cjc128_1876"
    INDEX 01 04:48:52
  TRACK 143 AUDIO
    TITLE "0:"
    INDEX 01 04:50:45
  TRACK 144 AUDIO
    TITLE "4:cjc128_1877"
    INDEX 01 04:51:31
  TRACK 145 AUDIO
    TITLE "0:"
    INDEX 01 04:53:73
  TRACK 146 AUDIO
    TITLE "5:cjc128_1878"
    INDEX 01 04:58:12
  TRACK 147 AUDIO
    TITLE "0:"
    INDEX 01 05:01:20
